<svg xmlns="http://www.w3.org/2000/svg" width="1200" height="630" viewBox="0 0 1200 630">
  <defs>
    <radialGradient id="bg" cx="50%" cy="-10%" r="120%">
      <stop offset="0%" stop-color="#16294A"/>
      <stop offset="60%" stop-color="#0C1626"/>
    </radialGradient>
    <pattern id="scan" width="1" height="3" patternUnits="userSpaceOnUse">
      <rect width="1" height="3" fill="rgba(0,0,0,0)"/>
      <rect width="1" height="1" y="2" fill="rgba(0,0,0,0.18)"/>
    </pattern>
    <radialGradient id="vig" cx="50%" cy="50%" r="75%">
      <stop offset="60%" stop-color="rgba(0,0,0,0)"/>
      <stop offset="100%" stop-color="rgba(0,0,0,0.5)"/>
    </radialGradient>
  </defs>
  <rect width="1200" height="630" fill="url(#bg)"/>
  <rect x="0" y="0" width="1200" height="630" fill="url(#scan)"/>
  <rect width="1200" height="630" fill="url(#vig)"/>
  <rect x="6" y="6" width="1188" height="618" fill="none" stroke="#5BB0E8" stroke-width="6"/>

  <text x="600" y="96" text-anchor="middle" font-family="monospace" font-size="22" letter-spacing="6" fill="#F4B740">0G ZERO CUP // ENTRY No.001</text>

  <rect x="485.5" y="170" width="17" height="17" fill="#5BB0E8"/><rect x="553.5" y="170" width="17" height="17" fill="#5BB0E8"/><rect x="485.5" y="187" width="17" height="17" fill="#5BB0E8"/><rect x="553.5" y="187" width="17" height="17" fill="#5BB0E8"/><rect x="485.5" y="204" width="17" height="17" fill="#5BB0E8"/><rect x="553.5" y="204" width="17" height="17" fill="#5BB0E8"/><rect x="485.5" y="221" width="17" height="17" fill="#5BB0E8"/><rect x="519.5" y="221" width="17" height="17" fill="#5BB0E8"/><rect x="553.5" y="221" width="17" height="17" fill="#5BB0E8"/><rect x="485.5" y="238" width="17" height="17" fill="#5BB0E8"/><rect x="519.5" y="238" width="17" height="17" fill="#5BB0E8"/><rect x="553.5" y="238" width="17" height="17" fill="#5BB0E8"/><rect x="485.5" y="255" width="17" height="17" fill="#5BB0E8"/><rect x="502.5" y="255" width="17" height="17" fill="#5BB0E8"/><rect x="536.5" y="255" width="17" height="17" fill="#5BB0E8"/><rect x="553.5" y="255" width="17" height="17" fill="#5BB0E8"/><rect x="485.5" y="272" width="17" height="17" fill="#5BB0E8"/><rect x="553.5" y="272" width="17" height="17" fill="#5BB0E8"/><rect x="587.5" y="170" width="17" height="17" fill="#5BB0E8"/><rect x="655.5" y="170" width="17" height="17" fill="#5BB0E8"/><rect x="587.5" y="187" width="17" height="17" fill="#5BB0E8"/><rect x="655.5" y="187" width="17" height="17" fill="#5BB0E8"/><rect x="587.5" y="204" width="17" height="17" fill="#5BB0E8"/><rect x="655.5" y="204" width="17" height="17" fill="#5BB0E8"/><rect x="587.5" y="221" width="17" height="17" fill="#5BB0E8"/><rect x="604.5" y="221" width="17" height="17" fill="#5BB0E8"/><rect x="621.5" y="221" width="17" height="17" fill="#5BB0E8"/><rect x="638.5" y="221" width="17" height="17" fill="#5BB0E8"/><rect x="655.5" y="221" width="17" height="17" fill="#5BB0E8"/><rect x="587.5" y="238" width="17" height="17" fill="#5BB0E8"/><rect x="655.5" y="238" width="17" height="17" fill="#5BB0E8"/><rect x="587.5" y="255" width="17" height="17" fill="#5BB0E8"/><rect x="655.5" y="255" width="17" height="17" fill="#5BB0E8"/><rect x="587.5" y="272" width="17" height="17" fill="#5BB0E8"/><rect x="655.5" y="272" width="17" height="17" fill="#5BB0E8"/><rect x="706.5" y="170" width="17" height="17" fill="#5BB0E8"/><rect x="723.5" y="170" width="17" height="17" fill="#5BB0E8"/><rect x="740.5" y="170" width="17" height="17" fill="#5BB0E8"/><rect x="689.5" y="187" width="17" height="17" fill="#5BB0E8"/><rect x="757.5" y="187" width="17" height="17" fill="#5BB0E8"/><rect x="689.5" y="204" width="17" height="17" fill="#5BB0E8"/><rect x="757.5" y="204" width="17" height="17" fill="#5BB0E8"/><rect x="689.5" y="221" width="17" height="17" fill="#5BB0E8"/><rect x="757.5" y="221" width="17" height="17" fill="#5BB0E8"/><rect x="689.5" y="238" width="17" height="17" fill="#5BB0E8"/><rect x="757.5" y="238" width="17" height="17" fill="#5BB0E8"/><rect x="689.5" y="255" width="17" height="17" fill="#5BB0E8"/><rect x="757.5" y="255" width="17" height="17" fill="#5BB0E8"/><rect x="706.5" y="272" width="17" height="17" fill="#5BB0E8"/><rect x="723.5" y="272" width="17" height="17" fill="#5BB0E8"/><rect x="740.5" y="272" width="17" height="17" fill="#5BB0E8"/><rect x="470.5" y="155" width="17" height="17" fill="#FF5277"/><rect x="538.5" y="155" width="17" height="17" fill="#FF5277"/><rect x="470.5" y="172" width="17" height="17" fill="#FF5277"/><rect x="538.5" y="172" width="17" height="17" fill="#FF5277"/><rect x="470.5" y="189" width="17" height="17" fill="#FF5277"/><rect x="538.5" y="189" width="17" height="17" fill="#FF5277"/><rect x="470.5" y="206" width="17" height="17" fill="#FF5277"/><rect x="504.5" y="206" width="17" height="17" fill="#FF5277"/><rect x="538.5" y="206" width="17" height="17" fill="#FF5277"/><rect x="470.5" y="223" width="17" height="17" fill="#FF5277"/><rect x="504.5" y="223" width="17" height="17" fill="#FF5277"/><rect x="538.5" y="223" width="17" height="17" fill="#FF5277"/><rect x="470.5" y="240" width="17" height="17" fill="#FF5277"/><rect x="487.5" y="240" width="17" height="17" fill="#FF5277"/><rect x="521.5" y="240" width="17" height="17" fill="#FF5277"/><rect x="538.5" y="240" width="17" height="17" fill="#FF5277"/><rect x="470.5" y="257" width="17" height="17" fill="#FF5277"/><rect x="538.5" y="257" width="17" height="17" fill="#FF5277"/><rect x="572.5" y="155" width="17" height="17" fill="#FF5277"/><rect x="640.5" y="155" width="17" height="17" fill="#FF5277"/><rect x="572.5" y="172" width="17" height="17" fill="#FF5277"/><rect x="640.5" y="172" width="17" height="17" fill="#FF5277"/><rect x="572.5" y="189" width="17" height="17" fill="#FF5277"/><rect x="640.5" y="189" width="17" height="17" fill="#FF5277"/><rect x="572.5" y="206" width="17" height="17" fill="#FF5277"/><rect x="589.5" y="206" width="17" height="17" fill="#FF5277"/><rect x="606.5" y="206" width="17" height="17" fill="#FF5277"/><rect x="623.5" y="206" width="17" height="17" fill="#FF5277"/><rect x="640.5" y="206" width="17" height="17" fill="#FF5277"/><rect x="572.5" y="223" width="17" height="17" fill="#FF5277"/><rect x="640.5" y="223" width="17" height="17" fill="#FF5277"/><rect x="572.5" y="240" width="17" height="17" fill="#FF5277"/><rect x="640.5" y="240" width="17" height="17" fill="#FF5277"/><rect x="572.5" y="257" width="17" height="17" fill="#FF5277"/><rect x="640.5" y="257" width="17" height="17" fill="#FF5277"/><rect x="691.5" y="155" width="17" height="17" fill="#FF5277"/><rect x="708.5" y="155" width="17" height="17" fill="#FF5277"/><rect x="725.5" y="155" width="17" height="17" fill="#FF5277"/><rect x="674.5" y="172" width="17" height="17" fill="#FF5277"/><rect x="742.5" y="172" width="17" height="17" fill="#FF5277"/><rect x="674.5" y="189" width="17" height="17" fill="#FF5277"/><rect x="742.5" y="189" width="17" height="17" fill="#FF5277"/><rect x="674.5" y="206" width="17" height="17" fill="#FF5277"/><rect x="742.5" y="206" width="17" height="17" fill="#FF5277"/><rect x="674.5" y="223" width="17" height="17" fill="#FF5277"/><rect x="742.5" y="223" width="17" height="17" fill="#FF5277"/><rect x="674.5" y="240" width="17" height="17" fill="#FF5277"/><rect x="742.5" y="240" width="17" height="17" fill="#FF5277"/><rect x="691.5" y="257" width="17" height="17" fill="#FF5277"/><rect x="708.5" y="257" width="17" height="17" fill="#FF5277"/><rect x="725.5" y="257" width="17" height="17" fill="#FF5277"/><rect x="455.5" y="140" width="17" height="17" fill="#F5ECD6"/><rect x="523.5" y="140" width="17" height="17" fill="#F5ECD6"/><rect x="455.5" y="157" width="17" height="17" fill="#F5ECD6"/><rect x="523.5" y="157" width="17" height="17" fill="#F5ECD6"/><rect x="455.5" y="174" width="17" height="17" fill="#F5ECD6"/><rect x="523.5" y="174" width="17" height="17" fill="#F5ECD6"/><rect x="455.5" y="191" width="17" height="17" fill="#F5ECD6"/><rect x="489.5" y="191" width="17" height="17" fill="#F5ECD6"/><rect x="523.5" y="191" width="17" height="17" fill="#F5ECD6"/><rect x="455.5" y="208" width="17" height="17" fill="#F5ECD6"/><rect x="489.5" y="208" width="17" height="17" fill="#F5ECD6"/><rect x="523.5" y="208" width="17" height="17" fill="#F5ECD6"/><rect x="455.5" y="225" width="17" height="17" fill="#F5ECD6"/><rect x="472.5" y="225" width="17" height="17" fill="#F5ECD6"/><rect x="506.5" y="225" width="17" height="17" fill="#F5ECD6"/><rect x="523.5" y="225" width="17" height="17" fill="#F5ECD6"/><rect x="455.5" y="242" width="17" height="17" fill="#F5ECD6"/><rect x="523.5" y="242" width="17" height="17" fill="#F5ECD6"/><rect x="557.5" y="140" width="17" height="17" fill="#F5ECD6"/><rect x="625.5" y="140" width="17" height="17" fill="#F5ECD6"/><rect x="557.5" y="157" width="17" height="17" fill="#F5ECD6"/><rect x="625.5" y="157" width="17" height="17" fill="#F5ECD6"/><rect x="557.5" y="174" width="17" height="17" fill="#F5ECD6"/><rect x="625.5" y="174" width="17" height="17" fill="#F5ECD6"/><rect x="557.5" y="191" width="17" height="17" fill="#F5ECD6"/><rect x="574.5" y="191" width="17" height="17" fill="#F5ECD6"/><rect x="591.5" y="191" width="17" height="17" fill="#F5ECD6"/><rect x="608.5" y="191" width="17" height="17" fill="#F5ECD6"/><rect x="625.5" y="191" width="17" height="17" fill="#F5ECD6"/><rect x="557.5" y="208" width="17" height="17" fill="#F5ECD6"/><rect x="625.5" y="208" width="17" height="17" fill="#F5ECD6"/><rect x="557.5" y="225" width="17" height="17" fill="#F5ECD6"/><rect x="625.5" y="225" width="17" height="17" fill="#F5ECD6"/><rect x="557.5" y="242" width="17" height="17" fill="#F5ECD6"/><rect x="625.5" y="242" width="17" height="17" fill="#F5ECD6"/><rect x="676.5" y="140" width="17" height="17" fill="#F5ECD6"/><rect x="693.5" y="140" width="17" height="17" fill="#F5ECD6"/><rect x="710.5" y="140" width="17" height="17" fill="#F5ECD6"/><rect x="659.5" y="157" width="17" height="17" fill="#F5ECD6"/><rect x="727.5" y="157" width="17" height="17" fill="#F5ECD6"/><rect x="659.5" y="174" width="17" height="17" fill="#F5ECD6"/><rect x="727.5" y="174" width="17" height="17" fill="#F5ECD6"/><rect x="659.5" y="191" width="17" height="17" fill="#F5ECD6"/><rect x="727.5" y="191" width="17" height="17" fill="#F5ECD6"/><rect x="659.5" y="208" width="17" height="17" fill="#F5ECD6"/><rect x="727.5" y="208" width="17" height="17" fill="#F5ECD6"/><rect x="659.5" y="225" width="17" height="17" fill="#F5ECD6"/><rect x="727.5" y="225" width="17" height="17" fill="#F5ECD6"/><rect x="676.5" y="242" width="17" height="17" fill="#F5ECD6"/><rect x="693.5" y="242" width="17" height="17" fill="#F5ECD6"/><rect x="710.5" y="242" width="17" height="17" fill="#F5ECD6"/>
  <rect x="281.5" y="330" width="17" height="17" fill="#5BB0E8"/><rect x="298.5" y="330" width="17" height="17" fill="#5BB0E8"/><rect x="315.5" y="330" width="17" height="17" fill="#5BB0E8"/><rect x="332.5" y="330" width="17" height="17" fill="#5BB0E8"/><rect x="281.5" y="347" width="17" height="17" fill="#5BB0E8"/><rect x="349.5" y="347" width="17" height="17" fill="#5BB0E8"/><rect x="281.5" y="364" width="17" height="17" fill="#5BB0E8"/><rect x="349.5" y="364" width="17" height="17" fill="#5BB0E8"/><rect x="281.5" y="381" width="17" height="17" fill="#5BB0E8"/><rect x="298.5" y="381" width="17" height="17" fill="#5BB0E8"/><rect x="315.5" y="381" width="17" height="17" fill="#5BB0E8"/><rect x="332.5" y="381" width="17" height="17" fill="#5BB0E8"/><rect x="281.5" y="398" width="17" height="17" fill="#5BB0E8"/><rect x="315.5" y="398" width="17" height="17" fill="#5BB0E8"/><rect x="281.5" y="415" width="17" height="17" fill="#5BB0E8"/><rect x="332.5" y="415" width="17" height="17" fill="#5BB0E8"/><rect x="281.5" y="432" width="17" height="17" fill="#5BB0E8"/><rect x="349.5" y="432" width="17" height="17" fill="#5BB0E8"/><rect x="383.5" y="330" width="17" height="17" fill="#5BB0E8"/><rect x="451.5" y="330" width="17" height="17" fill="#5BB0E8"/><rect x="383.5" y="347" width="17" height="17" fill="#5BB0E8"/><rect x="451.5" y="347" width="17" height="17" fill="#5BB0E8"/><rect x="383.5" y="364" width="17" height="17" fill="#5BB0E8"/><rect x="451.5" y="364" width="17" height="17" fill="#5BB0E8"/><rect x="383.5" y="381" width="17" height="17" fill="#5BB0E8"/><rect x="451.5" y="381" width="17" height="17" fill="#5BB0E8"/><rect x="383.5" y="398" width="17" height="17" fill="#5BB0E8"/><rect x="451.5" y="398" width="17" height="17" fill="#5BB0E8"/><rect x="383.5" y="415" width="17" height="17" fill="#5BB0E8"/><rect x="451.5" y="415" width="17" height="17" fill="#5BB0E8"/><rect x="400.5" y="432" width="17" height="17" fill="#5BB0E8"/><rect x="417.5" y="432" width="17" height="17" fill="#5BB0E8"/><rect x="434.5" y="432" width="17" height="17" fill="#5BB0E8"/><rect x="502.5" y="330" width="17" height="17" fill="#5BB0E8"/><rect x="519.5" y="330" width="17" height="17" fill="#5BB0E8"/><rect x="536.5" y="330" width="17" height="17" fill="#5BB0E8"/><rect x="485.5" y="347" width="17" height="17" fill="#5BB0E8"/><rect x="553.5" y="347" width="17" height="17" fill="#5BB0E8"/><rect x="485.5" y="364" width="17" height="17" fill="#5BB0E8"/><rect x="485.5" y="381" width="17" height="17" fill="#5BB0E8"/><rect x="519.5" y="381" width="17" height="17" fill="#5BB0E8"/><rect x="536.5" y="381" width="17" height="17" fill="#5BB0E8"/><rect x="553.5" y="381" width="17" height="17" fill="#5BB0E8"/><rect x="485.5" y="398" width="17" height="17" fill="#5BB0E8"/><rect x="553.5" y="398" width="17" height="17" fill="#5BB0E8"/><rect x="485.5" y="415" width="17" height="17" fill="#5BB0E8"/><rect x="553.5" y="415" width="17" height="17" fill="#5BB0E8"/><rect x="502.5" y="432" width="17" height="17" fill="#5BB0E8"/><rect x="519.5" y="432" width="17" height="17" fill="#5BB0E8"/><rect x="536.5" y="432" width="17" height="17" fill="#5BB0E8"/><rect x="604.5" y="330" width="17" height="17" fill="#5BB0E8"/><rect x="621.5" y="330" width="17" height="17" fill="#5BB0E8"/><rect x="638.5" y="330" width="17" height="17" fill="#5BB0E8"/><rect x="587.5" y="347" width="17" height="17" fill="#5BB0E8"/><rect x="655.5" y="347" width="17" height="17" fill="#5BB0E8"/><rect x="587.5" y="364" width="17" height="17" fill="#5BB0E8"/><rect x="587.5" y="381" width="17" height="17" fill="#5BB0E8"/><rect x="621.5" y="381" width="17" height="17" fill="#5BB0E8"/><rect x="638.5" y="381" width="17" height="17" fill="#5BB0E8"/><rect x="655.5" y="381" width="17" height="17" fill="#5BB0E8"/><rect x="587.5" y="398" width="17" height="17" fill="#5BB0E8"/><rect x="655.5" y="398" width="17" height="17" fill="#5BB0E8"/><rect x="587.5" y="415" width="17" height="17" fill="#5BB0E8"/><rect x="655.5" y="415" width="17" height="17" fill="#5BB0E8"/><rect x="604.5" y="432" width="17" height="17" fill="#5BB0E8"/><rect x="621.5" y="432" width="17" height="17" fill="#5BB0E8"/><rect x="638.5" y="432" width="17" height="17" fill="#5BB0E8"/><rect x="689.5" y="330" width="17" height="17" fill="#5BB0E8"/><rect x="706.5" y="330" width="17" height="17" fill="#5BB0E8"/><rect x="723.5" y="330" width="17" height="17" fill="#5BB0E8"/><rect x="740.5" y="330" width="17" height="17" fill="#5BB0E8"/><rect x="757.5" y="330" width="17" height="17" fill="#5BB0E8"/><rect x="689.5" y="347" width="17" height="17" fill="#5BB0E8"/><rect x="689.5" y="364" width="17" height="17" fill="#5BB0E8"/><rect x="689.5" y="381" width="17" height="17" fill="#5BB0E8"/><rect x="706.5" y="381" width="17" height="17" fill="#5BB0E8"/><rect x="723.5" y="381" width="17" height="17" fill="#5BB0E8"/><rect x="740.5" y="381" width="17" height="17" fill="#5BB0E8"/><rect x="689.5" y="398" width="17" height="17" fill="#5BB0E8"/><rect x="689.5" y="415" width="17" height="17" fill="#5BB0E8"/><rect x="689.5" y="432" width="17" height="17" fill="#5BB0E8"/><rect x="706.5" y="432" width="17" height="17" fill="#5BB0E8"/><rect x="723.5" y="432" width="17" height="17" fill="#5BB0E8"/><rect x="740.5" y="432" width="17" height="17" fill="#5BB0E8"/><rect x="757.5" y="432" width="17" height="17" fill="#5BB0E8"/><rect x="791.5" y="330" width="17" height="17" fill="#5BB0E8"/><rect x="808.5" y="330" width="17" height="17" fill="#5BB0E8"/><rect x="825.5" y="330" width="17" height="17" fill="#5BB0E8"/><rect x="842.5" y="330" width="17" height="17" fill="#5BB0E8"/><rect x="791.5" y="347" width="17" height="17" fill="#5BB0E8"/><rect x="859.5" y="347" width="17" height="17" fill="#5BB0E8"/><rect x="791.5" y="364" width="17" height="17" fill="#5BB0E8"/><rect x="859.5" y="364" width="17" height="17" fill="#5BB0E8"/><rect x="791.5" y="381" width="17" height="17" fill="#5BB0E8"/><rect x="859.5" y="381" width="17" height="17" fill="#5BB0E8"/><rect x="791.5" y="398" width="17" height="17" fill="#5BB0E8"/><rect x="859.5" y="398" width="17" height="17" fill="#5BB0E8"/><rect x="791.5" y="415" width="17" height="17" fill="#5BB0E8"/><rect x="859.5" y="415" width="17" height="17" fill="#5BB0E8"/><rect x="791.5" y="432" width="17" height="17" fill="#5BB0E8"/><rect x="808.5" y="432" width="17" height="17" fill="#5BB0E8"/><rect x="825.5" y="432" width="17" height="17" fill="#5BB0E8"/><rect x="842.5" y="432" width="17" height="17" fill="#5BB0E8"/><rect x="910.5" y="330" width="17" height="17" fill="#5BB0E8"/><rect x="927.5" y="330" width="17" height="17" fill="#5BB0E8"/><rect x="944.5" y="330" width="17" height="17" fill="#5BB0E8"/><rect x="893.5" y="347" width="17" height="17" fill="#5BB0E8"/><rect x="961.5" y="347" width="17" height="17" fill="#5BB0E8"/><rect x="961.5" y="364" width="17" height="17" fill="#5BB0E8"/><rect x="944.5" y="381" width="17" height="17" fill="#5BB0E8"/><rect x="927.5" y="398" width="17" height="17" fill="#5BB0E8"/><rect x="927.5" y="432" width="17" height="17" fill="#5BB0E8"/><rect x="266.5" y="315" width="17" height="17" fill="#FF5277"/><rect x="283.5" y="315" width="17" height="17" fill="#FF5277"/><rect x="300.5" y="315" width="17" height="17" fill="#FF5277"/><rect x="317.5" y="315" width="17" height="17" fill="#FF5277"/><rect x="266.5" y="332" width="17" height="17" fill="#FF5277"/><rect x="334.5" y="332" width="17" height="17" fill="#FF5277"/><rect x="266.5" y="349" width="17" height="17" fill="#FF5277"/><rect x="334.5" y="349" width="17" height="17" fill="#FF5277"/><rect x="266.5" y="366" width="17" height="17" fill="#FF5277"/><rect x="283.5" y="366" width="17" height="17" fill="#FF5277"/><rect x="300.5" y="366" width="17" height="17" fill="#FF5277"/><rect x="317.5" y="366" width="17" height="17" fill="#FF5277"/><rect x="266.5" y="383" width="17" height="17" fill="#FF5277"/><rect x="300.5" y="383" width="17" height="17" fill="#FF5277"/><rect x="266.5" y="400" width="17" height="17" fill="#FF5277"/><rect x="317.5" y="400" width="17" height="17" fill="#FF5277"/><rect x="266.5" y="417" width="17" height="17" fill="#FF5277"/><rect x="334.5" y="417" width="17" height="17" fill="#FF5277"/><rect x="368.5" y="315" width="17" height="17" fill="#FF5277"/><rect x="436.5" y="315" width="17" height="17" fill="#FF5277"/><rect x="368.5" y="332" width="17" height="17" fill="#FF5277"/><rect x="436.5" y="332" width="17" height="17" fill="#FF5277"/><rect x="368.5" y="349" width="17" height="17" fill="#FF5277"/><rect x="436.5" y="349" width="17" height="17" fill="#FF5277"/><rect x="368.5" y="366" width="17" height="17" fill="#FF5277"/><rect x="436.5" y="366" width="17" height="17" fill="#FF5277"/><rect x="368.5" y="383" width="17" height="17" fill="#FF5277"/><rect x="436.5" y="383" width="17" height="17" fill="#FF5277"/><rect x="368.5" y="400" width="17" height="17" fill="#FF5277"/><rect x="436.5" y="400" width="17" height="17" fill="#FF5277"/><rect x="385.5" y="417" width="17" height="17" fill="#FF5277"/><rect x="402.5" y="417" width="17" height="17" fill="#FF5277"/><rect x="419.5" y="417" width="17" height="17" fill="#FF5277"/><rect x="487.5" y="315" width="17" height="17" fill="#FF5277"/><rect x="504.5" y="315" width="17" height="17" fill="#FF5277"/><rect x="521.5" y="315" width="17" height="17" fill="#FF5277"/><rect x="470.5" y="332" width="17" height="17" fill="#FF5277"/><rect x="538.5" y="332" width="17" height="17" fill="#FF5277"/><rect x="470.5" y="349" width="17" height="17" fill="#FF5277"/><rect x="470.5" y="366" width="17" height="17" fill="#FF5277"/><rect x="504.5" y="366" width="17" height="17" fill="#FF5277"/><rect x="521.5" y="366" width="17" height="17" fill="#FF5277"/><rect x="538.5" y="366" width="17" height="17" fill="#FF5277"/><rect x="470.5" y="383" width="17" height="17" fill="#FF5277"/><rect x="538.5" y="383" width="17" height="17" fill="#FF5277"/><rect x="470.5" y="400" width="17" height="17" fill="#FF5277"/><rect x="538.5" y="400" width="17" height="17" fill="#FF5277"/><rect x="487.5" y="417" width="17" height="17" fill="#FF5277"/><rect x="504.5" y="417" width="17" height="17" fill="#FF5277"/><rect x="521.5" y="417" width="17" height="17" fill="#FF5277"/><rect x="589.5" y="315" width="17" height="17" fill="#FF5277"/><rect x="606.5" y="315" width="17" height="17" fill="#FF5277"/><rect x="623.5" y="315" width="17" height="17" fill="#FF5277"/><rect x="572.5" y="332" width="17" height="17" fill="#FF5277"/><rect x="640.5" y="332" width="17" height="17" fill="#FF5277"/><rect x="572.5" y="349" width="17" height="17" fill="#FF5277"/><rect x="572.5" y="366" width="17" height="17" fill="#FF5277"/><rect x="606.5" y="366" width="17" height="17" fill="#FF5277"/><rect x="623.5" y="366" width="17" height="17" fill="#FF5277"/><rect x="640.5" y="366" width="17" height="17" fill="#FF5277"/><rect x="572.5" y="383" width="17" height="17" fill="#FF5277"/><rect x="640.5" y="383" width="17" height="17" fill="#FF5277"/><rect x="572.5" y="400" width="17" height="17" fill="#FF5277"/><rect x="640.5" y="400" width="17" height="17" fill="#FF5277"/><rect x="589.5" y="417" width="17" height="17" fill="#FF5277"/><rect x="606.5" y="417" width="17" height="17" fill="#FF5277"/><rect x="623.5" y="417" width="17" height="17" fill="#FF5277"/><rect x="674.5" y="315" width="17" height="17" fill="#FF5277"/><rect x="691.5" y="315" width="17" height="17" fill="#FF5277"/><rect x="708.5" y="315" width="17" height="17" fill="#FF5277"/><rect x="725.5" y="315" width="17" height="17" fill="#FF5277"/><rect x="742.5" y="315" width="17" height="17" fill="#FF5277"/><rect x="674.5" y="332" width="17" height="17" fill="#FF5277"/><rect x="674.5" y="349" width="17" height="17" fill="#FF5277"/><rect x="674.5" y="366" width="17" height="17" fill="#FF5277"/><rect x="691.5" y="366" width="17" height="17" fill="#FF5277"/><rect x="708.5" y="366" width="17" height="17" fill="#FF5277"/><rect x="725.5" y="366" width="17" height="17" fill="#FF5277"/><rect x="674.5" y="383" width="17" height="17" fill="#FF5277"/><rect x="674.5" y="400" width="17" height="17" fill="#FF5277"/><rect x="674.5" y="417" width="17" height="17" fill="#FF5277"/><rect x="691.5" y="417" width="17" height="17" fill="#FF5277"/><rect x="708.5" y="417" width="17" height="17" fill="#FF5277"/><rect x="725.5" y="417" width="17" height="17" fill="#FF5277"/><rect x="742.5" y="417" width="17" height="17" fill="#FF5277"/><rect x="776.5" y="315" width="17" height="17" fill="#FF5277"/><rect x="793.5" y="315" width="17" height="17" fill="#FF5277"/><rect x="810.5" y="315" width="17" height="17" fill="#FF5277"/><rect x="827.5" y="315" width="17" height="17" fill="#FF5277"/><rect x="776.5" y="332" width="17" height="17" fill="#FF5277"/><rect x="844.5" y="332" width="17" height="17" fill="#FF5277"/><rect x="776.5" y="349" width="17" height="17" fill="#FF5277"/><rect x="844.5" y="349" width="17" height="17" fill="#FF5277"/><rect x="776.5" y="366" width="17" height="17" fill="#FF5277"/><rect x="844.5" y="366" width="17" height="17" fill="#FF5277"/><rect x="776.5" y="383" width="17" height="17" fill="#FF5277"/><rect x="844.5" y="383" width="17" height="17" fill="#FF5277"/><rect x="776.5" y="400" width="17" height="17" fill="#FF5277"/><rect x="844.5" y="400" width="17" height="17" fill="#FF5277"/><rect x="776.5" y="417" width="17" height="17" fill="#FF5277"/><rect x="793.5" y="417" width="17" height="17" fill="#FF5277"/><rect x="810.5" y="417" width="17" height="17" fill="#FF5277"/><rect x="827.5" y="417" width="17" height="17" fill="#FF5277"/><rect x="895.5" y="315" width="17" height="17" fill="#FF5277"/><rect x="912.5" y="315" width="17" height="17" fill="#FF5277"/><rect x="929.5" y="315" width="17" height="17" fill="#FF5277"/><rect x="878.5" y="332" width="17" height="17" fill="#FF5277"/><rect x="946.5" y="332" width="17" height="17" fill="#FF5277"/><rect x="946.5" y="349" width="17" height="17" fill="#FF5277"/><rect x="929.5" y="366" width="17" height="17" fill="#FF5277"/><rect x="912.5" y="383" width="17" height="17" fill="#FF5277"/><rect x="912.5" y="417" width="17" height="17" fill="#FF5277"/><rect x="251.5" y="300" width="17" height="17" fill="#F5ECD6"/><rect x="268.5" y="300" width="17" height="17" fill="#F5ECD6"/><rect x="285.5" y="300" width="17" height="17" fill="#F5ECD6"/><rect x="302.5" y="300" width="17" height="17" fill="#F5ECD6"/><rect x="251.5" y="317" width="17" height="17" fill="#F5ECD6"/><rect x="319.5" y="317" width="17" height="17" fill="#F5ECD6"/><rect x="251.5" y="334" width="17" height="17" fill="#F5ECD6"/><rect x="319.5" y="334" width="17" height="17" fill="#F5ECD6"/><rect x="251.5" y="351" width="17" height="17" fill="#F5ECD6"/><rect x="268.5" y="351" width="17" height="17" fill="#F5ECD6"/><rect x="285.5" y="351" width="17" height="17" fill="#F5ECD6"/><rect x="302.5" y="351" width="17" height="17" fill="#F5ECD6"/><rect x="251.5" y="368" width="17" height="17" fill="#F5ECD6"/><rect x="285.5" y="368" width="17" height="17" fill="#F5ECD6"/><rect x="251.5" y="385" width="17" height="17" fill="#F5ECD6"/><rect x="302.5" y="385" width="17" height="17" fill="#F5ECD6"/><rect x="251.5" y="402" width="17" height="17" fill="#F5ECD6"/><rect x="319.5" y="402" width="17" height="17" fill="#F5ECD6"/><rect x="353.5" y="300" width="17" height="17" fill="#F5ECD6"/><rect x="421.5" y="300" width="17" height="17" fill="#F5ECD6"/><rect x="353.5" y="317" width="17" height="17" fill="#F5ECD6"/><rect x="421.5" y="317" width="17" height="17" fill="#F5ECD6"/><rect x="353.5" y="334" width="17" height="17" fill="#F5ECD6"/><rect x="421.5" y="334" width="17" height="17" fill="#F5ECD6"/><rect x="353.5" y="351" width="17" height="17" fill="#F5ECD6"/><rect x="421.5" y="351" width="17" height="17" fill="#F5ECD6"/><rect x="353.5" y="368" width="17" height="17" fill="#F5ECD6"/><rect x="421.5" y="368" width="17" height="17" fill="#F5ECD6"/><rect x="353.5" y="385" width="17" height="17" fill="#F5ECD6"/><rect x="421.5" y="385" width="17" height="17" fill="#F5ECD6"/><rect x="370.5" y="402" width="17" height="17" fill="#F5ECD6"/><rect x="387.5" y="402" width="17" height="17" fill="#F5ECD6"/><rect x="404.5" y="402" width="17" height="17" fill="#F5ECD6"/><rect x="472.5" y="300" width="17" height="17" fill="#F5ECD6"/><rect x="489.5" y="300" width="17" height="17" fill="#F5ECD6"/><rect x="506.5" y="300" width="17" height="17" fill="#F5ECD6"/><rect x="455.5" y="317" width="17" height="17" fill="#F5ECD6"/><rect x="523.5" y="317" width="17" height="17" fill="#F5ECD6"/><rect x="455.5" y="334" width="17" height="17" fill="#F5ECD6"/><rect x="455.5" y="351" width="17" height="17" fill="#F5ECD6"/><rect x="489.5" y="351" width="17" height="17" fill="#F5ECD6"/><rect x="506.5" y="351" width="17" height="17" fill="#F5ECD6"/><rect x="523.5" y="351" width="17" height="17" fill="#F5ECD6"/><rect x="455.5" y="368" width="17" height="17" fill="#F5ECD6"/><rect x="523.5" y="368" width="17" height="17" fill="#F5ECD6"/><rect x="455.5" y="385" width="17" height="17" fill="#F5ECD6"/><rect x="523.5" y="385" width="17" height="17" fill="#F5ECD6"/><rect x="472.5" y="402" width="17" height="17" fill="#F5ECD6"/><rect x="489.5" y="402" width="17" height="17" fill="#F5ECD6"/><rect x="506.5" y="402" width="17" height="17" fill="#F5ECD6"/><rect x="574.5" y="300" width="17" height="17" fill="#F5ECD6"/><rect x="591.5" y="300" width="17" height="17" fill="#F5ECD6"/><rect x="608.5" y="300" width="17" height="17" fill="#F5ECD6"/><rect x="557.5" y="317" width="17" height="17" fill="#F5ECD6"/><rect x="625.5" y="317" width="17" height="17" fill="#F5ECD6"/><rect x="557.5" y="334" width="17" height="17" fill="#F5ECD6"/><rect x="557.5" y="351" width="17" height="17" fill="#F5ECD6"/><rect x="591.5" y="351" width="17" height="17" fill="#F5ECD6"/><rect x="608.5" y="351" width="17" height="17" fill="#F5ECD6"/><rect x="625.5" y="351" width="17" height="17" fill="#F5ECD6"/><rect x="557.5" y="368" width="17" height="17" fill="#F5ECD6"/><rect x="625.5" y="368" width="17" height="17" fill="#F5ECD6"/><rect x="557.5" y="385" width="17" height="17" fill="#F5ECD6"/><rect x="625.5" y="385" width="17" height="17" fill="#F5ECD6"/><rect x="574.5" y="402" width="17" height="17" fill="#F5ECD6"/><rect x="591.5" y="402" width="17" height="17" fill="#F5ECD6"/><rect x="608.5" y="402" width="17" height="17" fill="#F5ECD6"/><rect x="659.5" y="300" width="17" height="17" fill="#F5ECD6"/><rect x="676.5" y="300" width="17" height="17" fill="#F5ECD6"/><rect x="693.5" y="300" width="17" height="17" fill="#F5ECD6"/><rect x="710.5" y="300" width="17" height="17" fill="#F5ECD6"/><rect x="727.5" y="300" width="17" height="17" fill="#F5ECD6"/><rect x="659.5" y="317" width="17" height="17" fill="#F5ECD6"/><rect x="659.5" y="334" width="17" height="17" fill="#F5ECD6"/><rect x="659.5" y="351" width="17" height="17" fill="#F5ECD6"/><rect x="676.5" y="351" width="17" height="17" fill="#F5ECD6"/><rect x="693.5" y="351" width="17" height="17" fill="#F5ECD6"/><rect x="710.5" y="351" width="17" height="17" fill="#F5ECD6"/><rect x="659.5" y="368" width="17" height="17" fill="#F5ECD6"/><rect x="659.5" y="385" width="17" height="17" fill="#F5ECD6"/><rect x="659.5" y="402" width="17" height="17" fill="#F5ECD6"/><rect x="676.5" y="402" width="17" height="17" fill="#F5ECD6"/><rect x="693.5" y="402" width="17" height="17" fill="#F5ECD6"/><rect x="710.5" y="402" width="17" height="17" fill="#F5ECD6"/><rect x="727.5" y="402" width="17" height="17" fill="#F5ECD6"/><rect x="761.5" y="300" width="17" height="17" fill="#F5ECD6"/><rect x="778.5" y="300" width="17" height="17" fill="#F5ECD6"/><rect x="795.5" y="300" width="17" height="17" fill="#F5ECD6"/><rect x="812.5" y="300" width="17" height="17" fill="#F5ECD6"/><rect x="761.5" y="317" width="17" height="17" fill="#F5ECD6"/><rect x="829.5" y="317" width="17" height="17" fill="#F5ECD6"/><rect x="761.5" y="334" width="17" height="17" fill="#F5ECD6"/><rect x="829.5" y="334" width="17" height="17" fill="#F5ECD6"/><rect x="761.5" y="351" width="17" height="17" fill="#F5ECD6"/><rect x="829.5" y="351" width="17" height="17" fill="#F5ECD6"/><rect x="761.5" y="368" width="17" height="17" fill="#F5ECD6"/><rect x="829.5" y="368" width="17" height="17" fill="#F5ECD6"/><rect x="761.5" y="385" width="17" height="17" fill="#F5ECD6"/><rect x="829.5" y="385" width="17" height="17" fill="#F5ECD6"/><rect x="761.5" y="402" width="17" height="17" fill="#F5ECD6"/><rect x="778.5" y="402" width="17" height="17" fill="#F5ECD6"/><rect x="795.5" y="402" width="17" height="17" fill="#F5ECD6"/><rect x="812.5" y="402" width="17" height="17" fill="#F5ECD6"/><rect x="880.5" y="300" width="17" height="17" fill="#F5ECD6"/><rect x="897.5" y="300" width="17" height="17" fill="#F5ECD6"/><rect x="914.5" y="300" width="17" height="17" fill="#F5ECD6"/><rect x="863.5" y="317" width="17" height="17" fill="#F5ECD6"/><rect x="931.5" y="317" width="17" height="17" fill="#F5ECD6"/><rect x="931.5" y="334" width="17" height="17" fill="#F5ECD6"/><rect x="914.5" y="351" width="17" height="17" fill="#F5ECD6"/><rect x="897.5" y="368" width="17" height="17" fill="#F5ECD6"/><rect x="897.5" y="402" width="17" height="17" fill="#F5ECD6"/>

  <text x="600" y="512" text-anchor="middle" font-family="monospace" font-size="26" fill="#F5ECD6">Five suspects. One drained the vault. You are the cop.</text>
  <text x="600" y="556" text-anchor="middle" font-family="monospace" font-size="19" letter-spacing="3" fill="#8FA6C4">A DEDUCTION GAME ON 0G THAT CAN PROVE IT NEVER CHEATED</text>

  <rect x="532" y="582" width="26" height="14" fill="#5BB0E8" stroke="#07101F" stroke-width="2"/><rect x="566" y="582" width="26" height="14" fill="#F4B740" stroke="#07101F" stroke-width="2"/><rect x="600" y="582" width="26" height="14" fill="#FF5277" stroke="#07101F" stroke-width="2"/><rect x="634" y="582" width="26" height="14" fill="#A7E05A" stroke="#07101F" stroke-width="2"/>
</svg>